<?xml version="1.0" encoding="iso-8859-1"?>
<svg version="1.1" id="&#x56FE;&#x5C42;_1" xmlns="http://www.w3.org/2000/svg" xmlns:xlink="http://www.w3.org/1999/xlink" x="0px"
	 y="0px" viewBox="0 0 190.461 190.461" style="enable-background:new 0 0 190.461 266.545;"
	 xml:space="preserve">
<g>
	<g>
		<path style="fill:#FFFFFF;" d="M144.031,51.397c-4.396-10.506-11.865-15.729-21.562-21.859
			c0.197-4.516-3.369-12.605-11.929-19.439c0,0-0.55,5.511-0.911,6.339C109.266,17.266,109.279,6.266,96.514,0
			c0,0,3.176,6.019-2.748,15.433C92.828,11.922,87.6,6.599,83.433,3.599c0,0,1.863,11.665-3.94,18.109
			c-18.06,2.557-33.939,13.316-41.279,30.974C18.714,44.938,8.231,67.825,9.47,83.935c0.957,12.432,8.413,23.534,18.923,28.622
			c-4.404,6.746-4.886,14.335-4.886,22.369c0,28.01,30.031,50.716,67.075,50.716c37.045,0,67.076-22.706,67.076-50.716
			c0-7.929-0.416-15.427-4.713-22.107c10.736-4.958,19.479-16.19,19.492-28.883C172.479,44.752,146.672,50.789,144.031,51.397z"/>
		<path style="fill:#FFFFFF;" d="M119.471,130.096c1.158,0.349,3.77-1.525,8.507-2.107c0.73,3.063,0.806,6.519,1.014,10.171
			c1.47,25.883-42.602,26.602-42.602,26.602c2.482,0.301,5.039,0.466,7.656,0.466c22.951,0,41.557-7.863,41.557-27.067
			c0-3.527-0.312-6.892-1.079-9.981c4.206,0.798,6.664,2.598,7.095,1.917c0.547-0.864-3.56-6.63-10.877-6.63
			C123.424,123.466,118.104,129.684,119.471,130.096z"/>
		<path style="fill:#FFFFFF;" d="M109.854,111.514c3.153-1.789-6.264-13.596-15.254-13.596s-17.554,11.831-15.254,13.596
			c2.302,1.766,2.067-5.233,15.127-5.233S107.369,112.924,109.854,111.514z"/>
		<path style="fill:#FFFFFF;" d="M84.202,69.444c0-3.775-3.06-6.835-6.834-6.835c-0.839,0-1.635,0.172-2.378,0.45l2.606,6.385
			L71.034,66.9c-0.316,0.787-0.501,1.643-0.501,2.544c0,3.775,3.06,6.835,6.835,6.835C81.142,76.279,84.202,73.219,84.202,69.444z"
			/>
		<path style="fill:#FFFFFF;" d="M110.541,76.279c3.773,0,6.834-3.06,6.834-6.835s-3.061-6.835-6.834-6.835
			c-0.84,0-1.636,0.172-2.379,0.45l2.605,6.385l-6.561-2.544c-0.316,0.787-0.502,1.643-0.502,2.544
			C103.705,73.219,106.766,76.279,110.541,76.279z"/>
	</g>
	<g>
		<path style="fill:#2C0B05;" d="M148.006,56.016c-2.317,0-4.758,0.308-7.229,0.877c-4.113-9.83-11.266-18.153-20.338-23.889
			c0.186-4.225-1.725-9.909-8.613-17.145c0,0,0.501,6.376-3.689,10.794c0.85-5.388-0.094-13.376-9.174-21.286
			c0,0,2.646,9.625-6.481,16.31c-0.878-3.285-2.631-6.892-5.748-10.724c0,0,1.297,8.282-4.132,14.312
			c-18.708,2.923-34.152,15.218-41.02,31.739c-2.625-0.638-5.222-0.989-7.68-0.989c-15.046,0-20.344,12.81-19.185,27.882
			c0.895,11.632,9.742,22.019,19.576,26.779c-4.121,6.311-6.443,13.412-6.443,20.928c0,26.207,28.097,47.451,62.756,47.451
			c34.66,0,62.758-21.244,62.758-47.451c0-7.418-2.261-14.434-6.28-20.684c10.044-4.639,19.196-15.183,20.107-27.023
			C168.35,68.826,163.052,56.016,148.006,56.016z M26.483,84.282c-1.292-9.636,1.595-14.512,11.58-13.704
			c-0.209,1.855-0.324,3.737-0.324,5.646c0,7.839,1.818,15.266,5.056,21.92C34.525,98.297,27.452,91.502,26.483,84.282z
			 M91.287,165.924c-27.559,0-49.431-14.376-49.431-35.214c0-21.743,10.89-22.085,21.99-24.317
			c-0.184-0.289-15.022-13.201-16.643-24.285c-2.893-19.782,12.128-36.2,27.091-36.2c6.455,0,12.38,3.022,17.036,8.06
			c4.654-5.037,10.579-8.06,17.034-8.06c14.962,0,28.973,16.296,27.091,36.2c-1.193,12.619-15.441,22.917-16.116,23.998
			c12.536,3.203,22.319,4.566,22.319,24.605C141.658,151.548,118.848,165.924,91.287,165.924z M155.424,84.282
			c-0.949,7.077-7.763,13.745-15.819,13.863c3.241-6.653,5.062-14.08,5.062-21.92c0-1.921-0.117-3.815-0.328-5.682
			C153.924,69.934,156.694,74.807,155.424,84.282z"/>
		<path style="fill:#2C0B05;" d="M117.635,127.088c1.084,0.327,3.527-1.427,7.959-1.972c0.684,2.866,0.754,6.099,0.948,9.516
			c1.375,24.216-39.859,24.889-39.859,24.889c2.322,0.282,4.714,0.436,7.163,0.436c21.473,0,38.882-7.356,38.882-25.324
			c0-3.299-0.292-6.448-1.011-9.338c3.936,0.747,6.235,2.431,6.639,1.794c0.512-0.809-3.331-6.204-10.177-6.204
			S116.355,126.702,117.635,127.088z"/>
		<path style="fill:#2C0B05;" d="M108.637,109.702c2.95-1.674-5.86-12.72-14.271-12.72c-8.412,0-16.424,11.068-14.272,12.72
			c2.153,1.652,1.935-4.896,14.153-4.896C106.465,104.806,106.312,111.021,108.637,109.702z"/>
		<path style="fill:#2C0B05;" d="M84.637,70.341c0-3.533-2.863-6.396-6.394-6.396c-0.786,0-1.53,0.161-2.226,0.421l2.438,5.975
			l-6.14-2.38c-0.295,0.736-0.468,1.537-0.468,2.38c0,3.532,2.862,6.395,6.395,6.395C81.774,76.736,84.637,73.873,84.637,70.341z"/>
		<path style="fill:#2C0B05;" d="M109.279,76.736c3.531,0,6.395-2.863,6.395-6.395c0-3.533-2.863-6.396-6.395-6.396
			c-0.785,0-1.529,0.161-2.225,0.421l2.438,5.975l-6.139-2.38c-0.297,0.736-0.469,1.537-0.469,2.38
			C102.885,73.873,105.747,76.736,109.279,76.736z"/>
	</g>
</g>
</svg>
